<?xml version="1.0" encoding="utf-8"?><svg version="1.1" id="_x38_SELECT_Logo" xmlns="http://www.w3.org/2000/svg" xmlns:xlink="http://www.w3.org/1999/xlink" x="0px" y="0px" viewBox="0 0 31.9 16.3" enable-background="new 0 0 31.9 16.3" xml:space="preserve"><g><path d="M29.5,2.4c1.6,1.6,2.4,3.5,2.4,5.8s-0.8,4.2-2.4,5.8c-1.6,1.6-3.5,2.4-5.8,2.4c-1.3,0-2.5-0.4-3.8-1.1c-1.2-0.7-2.1-1.4-2.6-2c-0.5-0.6-0.8-1-0.9-1.2c-0.4-0.6-0.3-1.1,0.2-1.4c0.6-0.4,1.1-0.3,1.5,0.2c0,0.1,0.2,0.4,0.7,0.9c0.4,0.5,1.1,1.1,2.1,1.6c0.9,0.6,1.9,0.9,2.8,0.9c1.7,0,3.1-0.6,4.3-1.8c1.2-1.2,1.8-2.6,1.8-4.3s-0.6-3.1-1.8-4.3c-1.2-1.2-2.6-1.8-4.3-1.8c-0.8,0-1.7,0.4-2.6,1.2S19.5,4.7,19,5.4c-0.5,0.7-1.2,1.8-2.2,3.3c-0.8,1.2-1.4,2.2-1.9,2.8c-0.5,0.6-1.1,1.4-1.8,2.3c-0.8,0.9-1.5,1.5-2.3,1.9c-0.8,0.4-1.6,0.6-2.6,0.6c-2.3,0-4.2-0.8-5.8-2.4S0,10.4,0,8.2C0,5.9,0.8,4,2.4,2.4S5.9,0,8.2,0C11,0,13.3,1.7,15,5.2c0.2,0.7,0.1,1.1-0.6,1.4C13.8,6.8,13.3,6.6,13,6L12.5,5c-0.3-0.7-0.9-1.3-1.7-2s-1.7-1-2.6-1C6.6,2.1,5.1,2.7,4,3.9S2.2,6.5,2.2,8.2s0.6,3.1,1.8,4.3s2.6,1.8,4.3,1.8c0.8,0,1.7-0.4,2.6-1.2s1.6-1.5,2.1-2.1c0.5-0.7,1.2-1.8,2.2-3.3c0.8-1.2,1.4-2.2,1.9-2.8s1.1-1.4,1.8-2.3s1.5-1.5,2.3-1.9C21.9,0.2,22.7,0,23.6,0C25.9,0,27.9,0.8,29.5,2.4z"/></g></svg>